HIERARCHY
ROOT Hips
{
	OFFSET 0.00000 0.00000 0.00000
	CHANNELS 6 Xposition Yposition Zposition Yrotation Zrotation Xrotation 
	JOINT Lumbar
	{
		OFFSET 0 0 0
		CHANNELS 3 Zrotation Xrotation Yrotation
		JOINT Neck
		{
			OFFSET 0.00 0.2701 0.00
			CHANNELS 3 Zrotation Xrotation Yrotation
			End Site
			{
				OFFSET 0.00 0.1379 0.00
			}
		}
		JOINT RightShoulder
		{
			OFFSET 0.0119 0.2289 0.1181
			CHANNELS 3 Zrotation Xrotation Yrotation
			JOINT RightElbow
			{
				OFFSET 0.00 -0.1475 0.00
				CHANNELS 2 Zrotation Yrotation
				JOINT RightWrist
				{
					OFFSET 0.00 -0.1605 0.00
					CHANNELS 2 Zrotation Xrotation
					End Site
					{
						OFFSET 0.0040 -0.1068 0.0006
					}
				}
			}
		}
		JOINT LeftShoulder
		{
			OFFSET 0.0119 0.2289 -0.1181
			CHANNELS 3 Zrotation Xrotation Yrotation
			JOINT LeftElbow
			{
				OFFSET 0.00 -0.1475 0.00
				CHANNELS 2 Zrotation Yrotation
				JOINT LeftWrist
				{
					OFFSET 0.00 -0.1605 0.00
					CHANNELS 2 Zrotation Xrotation
					End Site
					{
						OFFSET 0.0040 -0.1068 -0.0006
					}
				}
			}
		}
	}
	JOINT RightHip
	{
		OFFSET 0.0316 -0.0424 0.0458
		CHANNELS 3 Zrotation Xrotation Yrotation
		JOINT RightKnee
		{
			OFFSET 0.00 -0.2438 0.00
			CHANNELS 1 Zrotation
			JOINT RightAnkle
			{
				OFFSET 0.00 -0.2449 0.00
				CHANNELS 3 Zrotation Xrotation Yrotation
				End Site
				{
					OFFSET 0.1237 -0.0542 0.0051
				}
			}
		}
	}
	JOINT LeftHip
	{
		OFFSET 0.0316 -0.0424 -0.0458
		CHANNELS 3 Zrotation Xrotation Yrotation
		JOINT LeftKnee
		{
			OFFSET 0.00 -0.2438 0.00
			CHANNELS 1 Zrotation
			JOINT LeftAnkle
			{
				OFFSET 0.00 -0.2449 0.00
				CHANNELS 3 Zrotation Xrotation Yrotation
				End Site
				{
					OFFSET 0.1237 -0.0542 -0.0051
				}
			}
		}
	}
}
MOTION
Frames: 26
Frame Time: 0.02
-0 0.57926 -0 178.55391 0 -4.39989 8.37329 3.5221 -2.75654 -21.34148 6.39804 3.35826 15.33782 -16.9231 -12.36032 5.78689 78.55947 -2.45449 1.57437 19.05123 2.99689 3.2401 6.7988 -76.16641 -4.33207 0.08297 -4.73857 8.32923 5.92732 -4.51063 2.20949 -2.84177 -4.50258 -4.79164 0.5215 -8.64791 -4.81791 7.7498 4.90366 5.99411
-2e-05 0.57927 1e-05 178.5797 0 -4.40576 8.35472 3.51297 -2.80986 -21.33894 6.40139 3.41339 15.34053 -16.92445 -12.32028 5.78697 78.56355 -2.50397 1.51774 18.98954 2.94845 4.25759 6.6729 -76.20157 -4.39939 0.12357 -4.74418 8.33723 5.90276 -4.50693 2.20536 -2.87031 -4.51264 -4.79376 0.53223 -8.61668 -4.81263 7.76004 4.83133 5.93105
-4e-05 0.57927 3e-05 178.60491 0 -4.41169 8.33613 3.50412 -2.86281 -21.33639 6.40473 3.46824 15.3434 -16.92571 -12.27967 5.78705 78.56735 -2.55295 1.46158 18.92768 2.8996 5.26337 6.54832 -76.23679 -4.46585 0.1637 -4.74977 8.34562 5.88892 -4.50334 2.20102 -2.89773 -4.53275 -4.79596 0.54295 -8.58534 -4.80723 7.77022 4.75947 5.86839
-5e-05 0.57927 4e-05 178.62831 0 -4.41776 8.31737 3.49599 -2.91483 -21.3334 6.40818 3.52232 15.34675 -16.92679 -12.23572 5.78713 78.57124 -2.60001 1.40702 18.86474 2.84842 6.24209 6.42631 -76.27145 -4.53031 0.20237 -4.75568 8.3566 5.94433 -4.49996 2.1953 -2.91848 -4.62002 -4.79844 0.55368 -8.55335 -4.80145 7.78026 4.68873 5.80663
-8e-05 0.57928 6e-05 178.66158 0 -4.42291 8.29967 3.48366 -2.97182 -21.33231 6.41121 3.58025 15.34731 -16.92901 -12.20858 5.78722 78.57601 -2.6568 1.34434 18.80779 2.80929 7.37609 6.2889 -76.30772 -4.60626 0.24878 -4.76033 8.355 5.6647 -4.49523 2.19634 -2.97163 -4.38364 -4.79933 0.56426 -8.52494 -4.79784 7.79105 4.61198 5.73997
-9e-05 0.57928 7e-05 178.67374 0 -4.43009 8.27961 3.48047 -3.01824 -21.32749 6.41499 3.63011 15.35395 -16.92869 -12.14651 5.78729 78.57802 -2.69325 1.29865 18.73802 2.74489 8.1724 6.18542 -76.34148 -4.65726 0.27879 -4.76734 8.37925 6.07237 -4.49351 2.18345 -2.95818 -4.81027 -4.80366 0.57523 -8.4889 -4.78952 7.80022 4.54804 5.68382
-9e-05 0.57928 0.0001 178.62736 0 -4.44265 8.25329 3.50158 -3.03555 -21.30947 6.4218 3.65704 15.37671 -16.92172 -11.97886 5.7873 78.57969 -2.67002 1.30236 18.63094 2.60564 8.09096 6.16686 -76.36116 -4.64335 0.26275 -4.78382 8.48493 8.64802 -4.49911 2.12694 -2.73644 -7.33674 -4.81726 0.58688 -8.43043 -4.76845 7.80514 4.51888 5.65545
-7e-05 0.57927 0.00012 178.55953 0 -4.4573 8.22449 3.53222 -3.04209 -21.28827 6.42893 3.67588 15.40582 -16.91183 -11.7782 5.78728 78.57718 -2.62698 1.32274 18.51095 2.44226 7.65754 6.18478 -76.37971 -4.60373 0.23044 -4.80218 8.61512 11.8747 -4.50791 2.05715 -2.45135 -10.48972 -4.83438 0.599 -8.36433 -4.74256 7.8084 4.50272 5.63785
-7e-05 0.57927 0.00014 178.50177 0 -4.47116 8.19665 3.55904 -3.05369 -21.27028 6.43562 3.69898 15.43238 -16.90336 -11.59738 5.78728 78.57188 -2.59514 1.33392 18.3982 2.29223 7.35049 6.19093 -76.40338 -4.573 0.20588 -4.81774 8.72753 14.62616 -4.51589 1.99682 -2.21129 -13.17947 -4.85005 0.61119 -8.30271 -4.71865 7.81229 4.481 5.6161
-5e-05 0.57927 0.00017 178.44316 0 -4.48437 8.16958 3.58335 -3.06509 -21.24448 6.44458 3.71995 15.45723 -16.89563 -11.39303 5.78727 78.58658 -2.55363 1.35208 18.28041 2.1296 7.18887 6.17426 -76.40735 -4.5532 0.17919 -4.84137 8.86737 18.11812 -4.52124 1.92244 -1.90422 -16.60671 -4.86507 0.62221 -8.23732 -4.69557 7.81669 4.4579 5.59127
-5e-05 0.57927 0.00019 178.38058 0 -4.49941 8.14024 3.6156 -3.07374 -21.23464 6.44759 3.74298 15.48753 -16.88427 -11.23378 5.78727 78.55841 -2.52803 1.35952 18.16913 1.9907 6.6361 6.21695 -76.4524 -4.50561 0.15384 -4.84879 8.95664 20.24272 -4.5328 1.87367 -1.7198 -18.66635 -4.8823 0.63576 -8.17732 -4.66969 7.81967 4.44066 5.57533
-5e-05 0.57928 0.00018 178.31782 0 -4.51918 8.10597 3.66377 -3.08248 -21.26601 6.4447 3.77725 15.52822 -16.87464 -11.17514 5.78727 78.41466 -2.54693 1.33444 18.08657 1.89709 5.12979 6.38846 -76.60881 -4.37772 0.12862 -4.80966 8.89392 18.25938 -4.56107 1.90294 -1.90574 -16.62915 -4.90467 0.65639 -8.13997 -4.63658 7.81883 4.43737 5.58238
-6e-05 0.57929 0.00016 178.25084 0 -4.54069 8.06936 3.7204 -3.08769 -21.31433 6.43339 3.8129 15.57478 -16.85886 -11.1703 5.78728 78.22759 -2.58323 1.29779 18.00939 1.83408 3.235 6.62389 -76.80728 -4.22411 0.10606 -4.75438 8.78068 14.91032 -4.59546 1.95761 -2.21452 -13.22585 -4.92915 0.67951 -8.10742 -4.60094 7.81666 4.43936 5.59797
-7e-05 0.5793 0.00015 178.18209 0 -4.56129 8.03334 3.77545 -3.09149 -21.35712 6.4195 3.84601 15.62064 -16.83935 -11.16014 5.78728 78.05919 -2.61443 1.26569 17.92501 1.77295 1.49086 6.84653 -76.98778 -4.08931 0.08802 -4.70734 8.69468 12.29938 -4.62682 1.99808 -2.45614 -10.557 -4.95274 0.70134 -8.0685 -4.56688 7.81534 4.4383 5.60872
-8e-05 0.57931 0.00014 178.12791 0 -4.5825 7.99924 3.82085 -3.10848 -21.39018 6.43443 3.88823 15.6583 -16.84948 -11.06266 5.78729 77.89493 -2.63337 1.23714 17.86107 1.64023 -0.15852 6.99954 -77.16246 -3.92546 0.04786 -4.65656 8.59133 9.21329 -4.65927 2.04957 -2.74244 -7.42807 -4.9762 0.72385 -8.04603 -4.53081 7.81299 4.44041 5.62317
-9e-05 0.57932 0.00011 178.04297 0 -4.60279 7.96058 3.88876 -3.09624 -21.44813 6.38512 3.91027 15.7145 -16.79372 -11.16705 5.78729 77.71185 -2.68186 1.19824 17.755 1.66937 -2.09008 7.31512 -77.36043 -3.81396 0.05132 -4.60973 8.51197 6.7865 -4.69094 2.08395 -2.96687 -4.92767 -5.00036 0.74552 -7.99177 -4.4984 7.81243 4.43707 5.63269
-9e-05 0.57936 1e-05 177.87164 0 -4.62029 7.91018 4.01205 -3.0133 -21.56608 6.17969 3.89035 15.81924 -16.58123 -11.75747 5.78726 77.48693 -2.81111 1.13367 17.53968 2.09446 -4.72631 8.03974 -77.60807 -3.86848 0.20365 -4.57747 8.50945 6.48656 -4.71841 2.06867 -2.97992 -4.46625 -5.026 0.76402 -7.84165 -4.4765 7.81783 4.41562 5.62243
-0.0001 0.57941 -0.00011 177.67019 0 -4.6367 7.8552 4.15844 -2.89943 -21.70951 5.90646 3.84755 15.94268 -16.29846 -12.55991 5.78721 77.24456 -2.96896 1.05912 17.28009 2.68997 -7.62566 8.93012 -77.88236 -3.97022 0.39499 -4.54968 8.53288 6.8963 -4.74513 2.03499 -2.92842 -4.68435 -5.05225 0.78149 -7.66317 -4.45837 7.82502 4.38797 5.61001
-0.00011 0.57945 -0.00023 177.48412 0 -4.65361 7.80214 4.29746 -2.79379 -21.84414 5.65151 3.80593 16.05829 -16.032 -13.304 5.78717 77.01062 -3.11154 0.98881 17.03562 3.23572 -10.39167 9.76027 -78.14243 -4.04518 0.54874 -4.52017 8.5457 6.99974 -4.77231 2.00691 -2.91409 -4.61196 -5.07809 0.79974 -7.49906 -4.43875 7.83084 4.36529 5.59817
-0.00012 0.5795 -0.00034 177.29026 0 -4.6709 7.74975 4.42403 -2.71261 -21.96708 5.4486 3.80298 16.17111 -15.8303 -13.89075 5.78713 76.77349 -3.2643 0.91878 16.81329 3.6643 -13.23719 10.52881 -78.3971 -4.1567 0.78408 -4.48924 8.55245 6.99927 -4.79848 1.99002 -2.87226 -4.42638 -5.10443 0.81729 -7.31865 -4.41832 7.83868 4.33702 5.57857
-0.00013 0.57955 -0.00046 177.10613 0 -4.68671 7.69483 4.58131 -2.57318 -22.12086 5.12205 3.7144 16.29435 -15.47836 -14.85332 5.78709 76.53888 -3.40247 0.84666 16.5332 4.37867 -15.9649 11.46432 -78.68858 -4.18479 0.86164 -4.462 8.5778 7.38666 -4.82739 1.94682 -2.8691 -4.64129 -5.13002 0.83533 -7.17821 -4.40022 7.8431 4.31472 5.58676
-0.00017 0.57961 -0.00063 176.95177 0 -4.70215 7.63472 4.82292 -2.28068 -22.3477 4.46432 3.39182 16.43952 -14.71832 -16.8162 5.78707 76.32089 -3.49281 0.76466 16.11128 5.82695 -18.38176 12.82357 -78.89764 -4.13754 0.46911 -4.44905 8.65613 8.8112 -4.85571 1.82007 -3.00319 -5.93178 -5.15157 0.86134 -7.03776 -4.39054 7.83437 4.34828 5.55953
-0.00021 0.57969 -0.00082 176.80939 0 -4.71556 7.57209 5.09365 -1.93079 -22.60562 3.68585 2.98448 16.59487 -13.81167 -19.14762 5.78706 76.10554 -3.56749 0.68191 15.63003 7.55959 -20.65382 14.34718 -79.17009 -3.97742 -0.07872 -4.43906 8.75133 10.58689 -4.8879 1.6697 -3.17541 -7.58807 -5.17249 0.88695 -6.95507 -4.38277 7.82253 4.38274 5.57583
-0.00026 0.57975 -0.001 176.66417 0 -4.72757 7.51022 5.34755 -1.60682 -22.85316 2.96668 2.61795 16.74709 -12.9788 -21.29984 5.78705 75.88528 -3.64963 0.60421 15.17324 9.17052 -22.93897 15.78929 -79.53697 -3.75516 -0.53947 -4.42407 8.83347 12.11117 -4.92427 1.54079 -3.31955 -8.98849 -5.19513 0.90818 -6.92963 -4.372 7.81452 4.38972 5.6531
-0.0003 0.57983 -0.00117 176.5058 0 -4.7491 7.44992 5.61733 -1.28167 -23.08614 2.22591 2.24079 16.89385 -12.1126 -23.50651 5.78704 75.67883 -3.73139 0.50737 14.73133 10.75475 -25.45782 17.25368 -79.40788 -3.99826 -1.06944 -4.42354 8.93809 14.02819 -4.93725 1.36816 -3.50561 -10.77054 -5.2125 0.94749 -6.57258 -4.36952 7.79726 4.50354 5.41209
-0.00034 0.57989 -0.00137 176.37945 0 -4.75065 7.38568 5.86078 -0.94672 -23.35606 1.50301 1.86615 17.05389 -11.28279 -25.68759 5.78702 75.44598 -3.80978 0.44898 14.23759 12.46104 -27.4499 18.72394 -80.29719 -3.26371 -1.49148 -4.39493 9.00099 15.22512 -4.99773 1.27847 -3.61587 -11.86051 -5.23974 0.95051 -6.89284 -4.35123 7.79739 4.40418 5.81588
